<svg width="22" height="22" viewBox="0 0 22 22" fill="none" xmlns="http://www.w3.org/2000/svg">
<circle cx="11" cy="11" r="11" fill="#F2F2F2"/>
<path fill-rule="evenodd" clip-rule="evenodd" d="M6.8 7.36364C6.46863 7.36364 6.2 7.6282 6.2 7.95455V16.2273C6.2 16.5536 6.46863 16.8182 6.8 16.8182H15.2C15.5314 16.8182 15.8 16.5536 15.8 16.2273V7.95455C15.8 7.6282 15.5314 7.36364 15.2 7.36364H6.8ZM5 7.95455C5 6.9755 5.80589 6.18182 6.8 6.18182H15.2C16.1941 6.18182 17 6.9755 17 7.95455V16.2273C17 17.2063 16.1941 18 15.2 18H6.8C5.80589 18 5 17.2063 5 16.2273V7.95455Z" fill="#5B4A58"/>
<path fill-rule="evenodd" clip-rule="evenodd" d="M13.4 5C13.7314 5 14 5.26456 14 5.59091V7.95455C14 8.2809 13.7314 8.54545 13.4 8.54545C13.0686 8.54545 12.8 8.2809 12.8 7.95455V5.59091C12.8 5.26456 13.0686 5 13.4 5Z" fill="#5B4A58"/>
<path fill-rule="evenodd" clip-rule="evenodd" d="M8.6 5C8.93137 5 9.2 5.26456 9.2 5.59091V7.95455C9.2 8.2809 8.93137 8.54545 8.6 8.54545C8.26863 8.54545 8 8.2809 8 7.95455V5.59091C8 5.26456 8.26863 5 8.6 5Z" fill="#5B4A58"/>
<path fill-rule="evenodd" clip-rule="evenodd" d="M5 10.3182C5 9.99183 5.26863 9.72727 5.6 9.72727H16.4C16.7314 9.72727 17 9.99183 17 10.3182C17 10.6445 16.7314 10.9091 16.4 10.9091H5.6C5.26863 10.9091 5 10.6445 5 10.3182Z" fill="#5B4A58"/>
</svg>
