<svg width="26" height="26" viewBox="0 0 26 26" fill="none" xmlns="http://www.w3.org/2000/svg">
<circle cx="13" cy="13" r="13" fill="#F2F2F2"/>
<g clip-path="url(#clip0_6786_928)">
<path fill-rule="evenodd" clip-rule="evenodd" d="M8.33398 8.91667C8.17927 8.91667 8.0309 8.97812 7.92151 9.08752C7.81211 9.19692 7.75065 9.34529 7.75065 9.5V17.6667C7.75065 17.8214 7.81211 17.9697 7.92151 18.0791C8.0309 18.1885 8.17928 18.25 8.33398 18.25H16.5007C16.6554 18.25 16.8037 18.1885 16.9131 18.0791C17.0225 17.9697 17.084 17.8214 17.084 17.6667V14.5517C17.084 14.2295 17.3452 13.9683 17.6673 13.9683C17.9895 13.9683 18.2507 14.2295 18.2507 14.5517V17.6667C18.2507 18.1308 18.0663 18.5759 17.7381 18.9041C17.4099 19.2323 16.9648 19.4167 16.5007 19.4167H8.33398C7.86986 19.4167 7.42474 19.2323 7.09655 18.9041C6.76836 18.5759 6.58398 18.1308 6.58398 17.6667V9.5C6.58398 9.03587 6.76836 8.59075 7.09655 8.26256C7.42474 7.93437 7.86986 7.75 8.33398 7.75H11.449C11.7712 7.75 12.0323 8.01117 12.0323 8.33333C12.0323 8.6555 11.7712 8.91667 11.449 8.91667H8.33398Z" fill="#5B4A58"/>
<path fill-rule="evenodd" clip-rule="evenodd" d="M16.0882 6.75417C16.316 6.52636 16.6853 6.52636 16.9131 6.75417L19.2465 9.0875C19.4743 9.31531 19.4743 9.68465 19.2465 9.91246L13.4131 15.7458C13.3037 15.8552 13.1554 15.9166 13.0007 15.9166H10.6673C10.3452 15.9166 10.084 15.6555 10.084 15.3333V13C10.084 12.8453 10.1454 12.6969 10.2548 12.5875L16.0882 6.75417ZM11.2507 13.2416V14.75H12.759L18.009 9.49998L16.5007 7.9916L11.2507 13.2416Z" fill="#5B4A58"/>
</g>
<defs>
<clipPath id="clip0_6786_928">
<rect width="14" height="14" fill="white" transform="translate(6 6)"/>
</clipPath>
</defs>
</svg>
