<svg width="22" height="22" viewBox="0 0 22 22" fill="none" xmlns="http://www.w3.org/2000/svg">
<rect width="22" height="22" rx="11" fill="#F2F2F2"/>
<path d="M10.8372 12.9008C10.1047 12.9008 9.81395 13.1903 9.81395 13.8056V14.0952C9.81395 14.7105 10.1047 15 10.8372 15C11.5814 15 11.8605 14.7105 11.8605 14.0952V13.8056C11.8605 13.1903 11.5814 12.9008 10.8372 12.9008ZM11.0581 6C9.43023 6 8.44186 6.89276 8 8.50938H9.80233C10.0116 7.78552 10.3837 7.60456 11.0814 7.60456C11.8721 7.60456 12.1395 7.84584 12.1395 8.48525C12.1395 8.91957 11.7674 9.18499 11.3372 9.46247C10.686 9.88472 9.94186 10.6689 9.94186 12.008H11.7442C11.7442 11.2239 12.2326 10.7534 12.7442 10.4397C13.3488 10.0777 14 9.67962 14 8.48525C14 6.89276 12.8372 6 11.0581 6Z" fill="#5B4A58"/>
</svg>
